<?xml version="1.0" encoding="utf-8"?>
<!-- Generator: Adobe Illustrator 22.0.1, SVG Export Plug-In . SVG Version: 6.00 Build 0)  -->
<svg version="1.1" id="Layer_1" xmlns="http://www.w3.org/2000/svg" xmlns:xlink="http://www.w3.org/1999/xlink" x="0px" y="0px"
	 viewBox="0 0 500 500" enable-background="new 0 0 500 500" xml:space="preserve">
<rect x="247.77" y="77.04" fill="#727373" width="3.43" height="175.41"/>
<g>
	<circle fill="#737881" cx="249.49" cy="104.58" r="37.68"/>
	<circle fill="#DEDAD8" cx="249.49" cy="104.58" r="36.18"/>
	<path fill="#BFB8B4" d="M268.34,73.49c4.6,6.06,7.33,13.6,7.33,21.78c0,19.98-16.28,36.17-36.35,36.17
		c-6.86,0-13.27-1.89-18.74-5.17c6.64,8.74,17.17,14.39,29.02,14.39c20.08,0,36.35-16.19,36.35-36.17
		C285.95,91.33,278.89,79.82,268.34,73.49z"/>
	<g>
		<circle fill="#EDECEB" cx="260.73" cy="96.65" r="12.52"/>
		<path fill="#BFB8B4" d="M263.11,87.75c2.15,0,4.16,0.62,5.85,1.7c-2.01-2.29-4.95-3.74-8.24-3.74c-6.04,0-10.94,4.9-10.94,10.94
			c0,3.89,2.03,7.31,5.09,9.25c-1.68-1.92-2.71-4.44-2.71-7.2C252.17,92.65,257.07,87.75,263.11,87.75z"/>
		<path fill="#DEDAD8" d="M271.67,96.65c0-2.76-1.02-5.28-2.71-7.2c-1.69-1.07-3.7-1.7-5.85-1.7c-6.04,0-10.94,4.9-10.94,10.94
			c0,2.76,1.02,5.28,2.71,7.2c1.69,1.07,3.7,1.7,5.85,1.7C266.77,107.59,271.67,102.69,271.67,96.65z"/>
	</g>
	<g>
		<circle fill="#EDECEB" cx="238.53" cy="125.6" r="5.98"/>
		<path fill="#BFB8B4" d="M237.56,121.31c0.91-0.48,1.9-0.66,2.85-0.58c-1.36-0.52-2.92-0.48-4.31,0.25
			c-2.56,1.34-3.54,4.5-2.2,7.06c0.86,1.65,2.48,2.64,4.21,2.78c-1.14-0.44-2.13-1.28-2.74-2.44
			C234.03,125.81,235.01,122.65,237.56,121.31z"/>
		<path fill="#DEDAD8" d="M243.16,123.17c-0.61-1.17-1.6-2-2.74-2.44c-0.95-0.08-1.94,0.1-2.85,0.58c-2.56,1.34-3.54,4.5-2.2,7.06
			c0.61,1.17,1.6,2,2.74,2.44c0.95,0.08,1.94-0.1,2.85-0.58C243.51,128.88,244.5,125.72,243.16,123.17z"/>
	</g>
	<g>
		<circle fill="#EDECEB" cx="229.66" cy="94.97" r="4.34"/>
		<path fill="#BFB8B4" d="M229.69,91.78c0.72-0.19,1.45-0.15,2.11,0.06c-0.87-0.6-1.99-0.83-3.09-0.54
			c-2.03,0.53-3.25,2.6-2.72,4.63c0.34,1.31,1.32,2.28,2.52,2.66c-0.73-0.5-1.3-1.26-1.54-2.18
			C226.44,94.38,227.66,92.3,229.69,91.78z"/>
		<path fill="#DEDAD8" d="M233.34,94.02c-0.24-0.93-0.8-1.68-1.54-2.18c-0.66-0.21-1.39-0.25-2.11-0.06
			c-2.03,0.53-3.25,2.6-2.72,4.63c0.24,0.93,0.8,1.68,1.54,2.18c0.66,0.21,1.39,0.25,2.11,0.06
			C232.65,98.12,233.86,96.05,233.34,94.02z"/>
	</g>
	<g>
		<circle fill="#EDECEB" cx="219.76" cy="105.9" r="4.34"/>
		<path fill="#BFB8B4" d="M219.79,102.7c0.72-0.19,1.45-0.15,2.11,0.06c-0.87-0.6-1.99-0.83-3.09-0.54
			c-2.03,0.53-3.25,2.6-2.72,4.63c0.34,1.31,1.32,2.28,2.52,2.66c-0.73-0.5-1.3-1.26-1.54-2.18
			C216.54,105.3,217.76,103.23,219.79,102.7z"/>
		<path fill="#DEDAD8" d="M223.44,104.94c-0.24-0.93-0.8-1.68-1.54-2.18c-0.66-0.21-1.39-0.25-2.11-0.06
			c-2.03,0.53-3.25,2.6-2.72,4.63c0.24,0.93,0.8,1.68,1.54,2.18c0.66,0.21,1.39,0.25,2.11,0.06
			C222.75,109.04,223.96,106.97,223.44,104.94z"/>
	</g>
	<g>
		<circle fill="#EDECEB" cx="230.37" cy="112.74" r="2.49"/>
		<path fill="#BFB8B4" d="M230.38,111.22c0.34-0.09,0.69-0.07,1.01,0.03c-0.42-0.28-0.95-0.39-1.48-0.26
			c-0.97,0.25-1.55,1.24-1.3,2.21c0.16,0.62,0.63,1.09,1.2,1.27c-0.35-0.24-0.62-0.6-0.73-1.04
			C228.83,112.46,229.42,111.47,230.38,111.22z"/>
		<path fill="#DEDAD8" d="M232.12,112.28c-0.11-0.44-0.38-0.8-0.73-1.04c-0.32-0.1-0.66-0.12-1.01-0.03
			c-0.97,0.25-1.55,1.24-1.3,2.21c0.11,0.44,0.38,0.8,0.73,1.04c0.32,0.1,0.66,0.12,1.01,0.03
			C231.79,114.24,232.38,113.25,232.12,112.28z"/>
	</g>
	<g>
		<circle fill="#EDECEB" cx="251.69" cy="117.31" r="2.49"/>
		<path fill="#BFB8B4" d="M251.71,115.73c0.36-0.09,0.72-0.08,1.04,0.03c-0.43-0.29-0.98-0.41-1.53-0.27
			c-1,0.26-1.61,1.29-1.35,2.29c0.17,0.65,0.65,1.13,1.25,1.32c-0.36-0.25-0.64-0.62-0.76-1.08
			C250.1,117.01,250.7,115.99,251.71,115.73z"/>
		<path fill="#DEDAD8" d="M253.51,116.84c-0.12-0.46-0.4-0.83-0.76-1.08c-0.33-0.11-0.69-0.12-1.04-0.03
			c-1,0.26-1.61,1.29-1.35,2.29c0.12,0.46,0.4,0.83,0.76,1.08c0.33,0.11,0.69,0.12,1.04,0.03
			C253.17,118.87,253.77,117.84,253.51,116.84z"/>
	</g>
	<g>
		<circle fill="#EDECEB" cx="252.17" cy="135.64" r="2.49"/>
		<path fill="#BFB8B4" d="M252.18,133.8c0.41-0.11,0.83-0.09,1.21,0.03c-0.5-0.34-1.14-0.47-1.78-0.31
			c-1.16,0.3-1.86,1.49-1.56,2.66c0.19,0.75,0.76,1.31,1.44,1.53c-0.42-0.29-0.74-0.72-0.88-1.25
			C250.32,135.29,251.02,134.11,252.18,133.8z"/>
		<path fill="#DEDAD8" d="M254.28,135.09c-0.14-0.53-0.46-0.97-0.88-1.25c-0.38-0.12-0.8-0.14-1.21-0.03
			c-1.16,0.3-1.86,1.49-1.56,2.66c0.14,0.53,0.46,0.97,0.88,1.25c0.38,0.12,0.8,0.14,1.21,0.03
			C253.88,137.44,254.58,136.25,254.28,135.09z"/>
	</g>
	<g>
		<circle fill="#EDECEB" cx="227.88" cy="80.76" r="1.68"/>
		<path fill="#BFB8B4" d="M227.89,79.73c0.23-0.06,0.47-0.05,0.68,0.02c-0.28-0.19-0.64-0.27-1-0.17c-0.65,0.17-1.05,0.84-0.88,1.49
			c0.11,0.42,0.43,0.73,0.81,0.86c-0.24-0.16-0.42-0.4-0.5-0.7C226.84,80.57,227.23,79.9,227.89,79.73z"/>
		<path fill="#DEDAD8" d="M229.06,80.45c-0.08-0.3-0.26-0.54-0.5-0.7c-0.21-0.07-0.45-0.08-0.68-0.02
			c-0.65,0.17-1.05,0.84-0.88,1.49c0.08,0.3,0.26,0.54,0.5,0.7c0.21,0.07,0.45,0.08,0.68,0.02
			C228.84,81.77,229.23,81.11,229.06,80.45z"/>
	</g>
	<g>
		<circle fill="#EDECEB" cx="239.22" cy="76.88" r="3.07"/>
		<path fill="#BFB8B4" d="M239.8,74.7c0.53,0,1.02,0.15,1.43,0.42c-0.49-0.56-1.21-0.92-2.02-0.92c-1.48,0-2.68,1.2-2.68,2.68
			c0,0.95,0.5,1.79,1.25,2.27c-0.41-0.47-0.66-1.09-0.66-1.76C237.12,75.9,238.32,74.7,239.8,74.7z"/>
		<path fill="#DEDAD8" d="M241.9,76.88c0-0.68-0.25-1.29-0.66-1.76c-0.41-0.26-0.91-0.42-1.43-0.42c-1.48,0-2.68,1.2-2.68,2.68
			c0,0.68,0.25,1.29,0.66,1.76c0.41,0.26,0.91,0.42,1.43,0.42C240.7,79.56,241.9,78.36,241.9,76.88z"/>
	</g>
</g>
</svg>
