<?xml version="1.0" encoding="utf-8"?>
<!-- Generator: Adobe Illustrator 22.0.1, SVG Export Plug-In . SVG Version: 6.00 Build 0)  -->
<svg version="1.1" id="Layer_1" xmlns="http://www.w3.org/2000/svg" xmlns:xlink="http://www.w3.org/1999/xlink" x="0px" y="0px"
	 viewBox="0 0 500 500" enable-background="new 0 0 500 500" xml:space="preserve">
<rect x="247.1" y="61" fill="#727373" width="3.4" height="175.4"/>
<g>
	<path fill="#FFFFFF" stroke="#727373" stroke-miterlimit="10" d="M209.4,67.3c0,25-17.3,45.9-40.6,51.4c3.9,0.9,8,1.4,12.2,1.4
		c29.2,0,52.8-23.7,52.8-52.8S210.1,14.5,181,14.5c-4.2,0-8.3,0.5-12.2,1.4C192,21.5,209.4,42.4,209.4,67.3z"/>
	<rect x="192.7" y="57.3" fill="#FFFFFF" stroke="#727373" stroke-miterlimit="10" width="6.9" height="20.1"/>
	<path fill="#FFFFFF" stroke="#727373" stroke-miterlimit="10" d="M253.6,98c-23,0-43.6-9.4-57.5-17.8c1.4-3.6,2.2-8.1,2.2-12.8
		c0-4.8-0.8-9.2-2.2-12.8c13.8-8.4,34.4-17.8,57.5-17.8c14,0,27.1,3.5,38.4,8.1l0,0c22.1,9.1,36.9,22.5,36.9,22.5
		s-14.9,13.4-37,22.5l0,0C280.7,94.5,267.6,98,253.6,98z"/>
	<path fill="#FFFFFF" stroke="#727373" stroke-miterlimit="10" d="M198.7,73c-16.5,0-29.9-5.7-29.9-5.7s13.4-5.7,29.9-5.7
		s29.9,5.7,29.9,5.7S215.2,73,198.7,73z"/>
	<path fill="#FFFFFF" stroke="#727373" stroke-miterlimit="10" d="M291.9,89.9l0.4-2.2c1-6.2,1.5-13.2,1.5-20.3s-0.5-14.2-1.5-20.3
		l-0.4-2.2l0,0c22.1,9.1,36.9,22.5,36.9,22.5S314,80.8,291.9,89.9L291.9,89.9z"/>
	<path fill="#FFFFFF" stroke="#727373" stroke-miterlimit="10" d="M297.3,67.3c0,7.6-0.6,14.7-1.6,20.9c20-9,33.1-20.9,33.1-20.9
		s-13.1-11.9-33.1-20.9C296.7,52.6,297.3,59.8,297.3,67.3z"/>
	
		<ellipse transform="matrix(0.1735 -0.9848 0.9848 0.1735 154.5607 318.7708)" fill="#FFFFFF" stroke="#727373" stroke-miterlimit="10" cx="267.2" cy="67.3" rx="12.2" ry="12.2"/>
	<circle fill="#FFFFFF" stroke="#727373" stroke-miterlimit="10" cx="267.2" cy="67.3" r="9.7"/>
	<line fill="none" stroke="#727373" stroke-miterlimit="10" x1="328.8" y1="67.3" x2="297.3" y2="67.3"/>
	<path fill="#FFFFFF" stroke="#727373" stroke-miterlimit="10" d="M228.6,67.3"/>
	<line fill="none" stroke="#727373" stroke-miterlimit="10" x1="228.6" y1="67.3" x2="168.8" y2="67.3"/>
	<g id="XMLID_1_">
		<g>
			<path fill="#AC3131" d="M181,120.2c-4.2,0-8.3-0.5-12.2-1.4c17.2-4.1,31.2-16.6,37.3-33c6.1,3.1,13.1,6,20.6,8.2
				C217.5,109.6,200.5,120.2,181,120.2z"/>
			<path fill="#E6E6E6" d="M291.9,89.9c-11.2,4.6-24.4,8.1-38.4,8.1c-9.5,0-18.6-1.6-26.9-4.1c4.6-7.8,7.2-16.9,7.2-26.6
				s-2.6-18.8-7.2-26.6c8.4-2.5,17.4-4.1,26.9-4.1c14,0,27.1,3.5,38.4,8.1l0.4,2.2c1,6.2,1.5,13.2,1.5,20.3s-0.5,14.2-1.5,20.3
				L291.9,89.9z M267.2,79.6c6.8,0,12.2-5.5,12.2-12.2s-5.5-12.2-12.2-12.2S255,60.7,255,67.4C255,74.1,260.4,79.6,267.2,79.6z"/>
			<path fill="#E6E6E6" d="M226.6,93.9c-7.5-2.2-14.4-5.1-20.6-8.2c1.6-4.2,2.6-8.7,3.1-13.4c11.4-1.5,19.5-5,19.5-5
				s-8.1-3.4-19.5-5c-0.4-4.7-1.5-9.2-3.1-13.4c6.1-3.1,13.1-6,20.6-8.2c4.6,7.8,7.2,16.9,7.2,26.6S231.2,86.1,226.6,93.9z"/>
			<path fill="#382A47" d="M291.9,89.9L291.9,89.9l0.3-2.2c1-6.2,1.5-13.2,1.5-20.3s-0.5-14.2-1.5-20.3l-0.4-2.2l0,0
				c1.3,0.5,2.5,1.1,3.8,1.6c1,6.2,1.6,13.3,1.6,20.9s-0.6,14.7-1.6,20.9C294.5,88.8,293.2,89.3,291.9,89.9z"/>
			<path fill="#AC3131" d="M298.5,86.9c-0.9,0.4-1.9,0.9-2.8,1.3c1-6.2,1.6-13.3,1.6-20.9h31.5l0,0l0,0c-0.2,0.1-0.8,0.7-1.8,1.6
				c-0.1,0.1-0.3,0.3-0.5,0.4c-0.1,0.1-0.2,0.2-0.4,0.3c-0.2,0.2-0.4,0.3-0.6,0.5c-0.7,0.5-1.5,1.2-2.3,1.8
				c-0.1,0.1-0.3,0.2-0.4,0.3s-0.3,0.2-0.5,0.3c-0.2,0.1-0.3,0.2-0.5,0.3c-0.2,0.1-0.3,0.2-0.5,0.4c-0.2,0.1-0.3,0.2-0.5,0.4
				c-0.3,0.2-0.7,0.5-1,0.8c-0.4,0.2-0.7,0.5-1.1,0.8c-1.1,0.8-2.4,1.6-3.7,2.5c-0.2,0.1-0.4,0.3-0.7,0.4s-0.5,0.3-0.7,0.4
				c-3.9,2.5-8.4,5.1-13.5,7.6c-0.3,0.1-0.5,0.3-0.8,0.4C299.1,86.7,298.8,86.8,298.5,86.9z"/>
			<path fill="#FFFFFF" d="M298.5,86.9c0.3-0.1,0.6-0.3,0.9-0.4C299.1,86.7,298.8,86.8,298.5,86.9z"/>
			<path fill="#FFFFFF" d="M299.4,86.5c0.3-0.1,0.5-0.3,0.8-0.4C299.9,86.3,299.6,86.4,299.4,86.5z"/>
			<path fill="#E6E6E6" d="M206.1,85.7c-3.6-1.8-7-3.7-10-5.5c0.3-0.9,0.6-1.8,0.9-2.8h2.5V73c3.4,0,6.6-0.3,9.6-0.7
				C208.7,77,207.7,81.5,206.1,85.7z"/>
			<path fill="#FFFFFF" d="M313.6,78.5c0.2-0.1,0.5-0.3,0.7-0.4C314.1,78.2,313.9,78.4,313.6,78.5z"/>
			<path fill="#FFFFFF" d="M314.3,78.1c0.2-0.1,0.4-0.3,0.7-0.4C314.7,77.8,314.5,78,314.3,78.1z"/>
			<path fill="#382A47" d="M197,77.4h-4.3v-4.6c1.7,0.1,3.4,0.2,5.2,0.2C197.7,74.5,197.4,76,197,77.4z"/>
			<path fill="#E6E6E6" d="M199.5,77.4H197c0.4-1.4,0.7-2.8,0.9-4.4c0.3,0,0.6,0,0.8,0s0.6,0,0.8,0V77.4L199.5,77.4z"/>
			<path fill="#E54C47" d="M279.4,67.3c0,6.8-5.5,12.2-12.2,12.2S255,74,255,67.3s5.5-12.2,12.2-12.2S279.4,60.6,279.4,67.3z
				 M267.2,77c5.3,0,9.7-4.3,9.7-9.7s-4.3-9.7-9.7-9.7c-5.3,0-9.7,4.3-9.7,9.7C257.5,72.7,261.9,77,267.2,77z"/>
			<path fill="#FFFFFF" d="M318.6,75.2c0.4-0.3,0.7-0.5,1.1-0.8C319.4,74.7,319,74.9,318.6,75.2z"/>
			<path fill="#382A47" d="M276.9,67.3c0,5.3-4.3,9.7-9.7,9.7c-5.3,0-9.7-4.3-9.7-9.7s4.3-9.7,9.7-9.7
				C272.5,57.7,276.9,62,276.9,67.3z"/>
			<path fill="#FFFFFF" d="M320.8,73.7c0.2-0.1,0.3-0.2,0.5-0.4C321.1,73.4,321,73.5,320.8,73.7z"/>
			<path fill="#AC3131" d="M199.5,73c-0.3,0-0.6,0-0.8,0s-0.6,0-0.8,0c0.2-1.8,0.4-3.7,0.4-5.7h1.3V73H199.5z"/>
			<path fill="#AC3131" d="M199.5,73v-5.7h9.8c0,1.7-0.1,3.3-0.2,5C206.1,72.7,202.9,73,199.5,73z"/>
			<path fill="#FFFFFF" d="M321.8,72.9c0.2-0.1,0.3-0.2,0.5-0.3C322.1,72.7,321.9,72.8,321.8,72.9z"/>
			<path fill="#AC3131" d="M197.9,73c-1.8,0-3.5-0.1-5.2-0.2v-5.4h5.6C198.3,69.3,198.1,71.2,197.9,73z"/>
			<path fill="#AC3131" d="M192.7,67.3v5.4c-13.6-1.1-23.9-5.4-23.9-5.4H192.7z"/>
			<path fill="#FFFFFF" d="M322.7,72.2c0.1-0.1,0.3-0.2,0.4-0.3C323,72,322.9,72.1,322.7,72.2z"/>
			<path fill="#AC3131" d="M228.6,67.3c0,0-8.1,3.4-19.5,5c0.2-1.6,0.2-3.3,0.2-5H228.6z"/>
			<path fill="#FFFFFF" d="M326.1,69.6c-0.2,0.2-0.4,0.3-0.6,0.5C325.7,69.9,325.9,69.8,326.1,69.6z"/>
			<path fill="#FFFFFF" d="M326.4,69.3c0.2-0.1,0.3-0.3,0.5-0.4C326.8,69.1,326.6,69.2,326.4,69.3z"/>
			<path fill="#FFFFFF" d="M328.8,67.4L328.8,67.4C328.8,67.3,328.8,67.3,328.8,67.4z"/>
			<path fill="#E54C47" d="M192.7,67.3h-23.9c0,0,10.3-4.3,23.9-5.4V67.3z"/>
			<path fill="#E54C47" d="M198.3,67.3h-5.6v-5.4c1.7-0.1,3.4-0.2,5.2-0.2C198.1,63.5,198.3,65.4,198.3,67.3z"/>
			<path fill="#E54C47" d="M199.5,67.3h-1.3c0-2-0.1-3.9-0.4-5.7c0.3,0,0.6,0,0.8,0s0.6,0,0.8,0v5.7H199.5z"/>
			<path fill="#E54C47" d="M209.4,67.3h-9.8v-5.7c3.4,0,6.6,0.3,9.6,0.7C209.3,64,209.4,65.7,209.4,67.3z"/>
			<path fill="#E54C47" d="M228.6,67.3h-19.3c0-1.7-0.1-3.3-0.2-5C220.5,63.9,228.6,67.3,228.6,67.3z"/>
			<path fill="#E54C47" d="M328.8,67.3h-31.5c0-7.6-0.6-14.7-1.6-20.9c0.6,0.3,1.2,0.6,1.9,0.8c0.3,0.1,0.6,0.3,0.9,0.4
				c0.3,0.2,0.6,0.3,0.9,0.4c0.3,0.2,0.6,0.3,0.9,0.4c0.3,0.2,0.6,0.3,0.9,0.4c0.6,0.3,1.2,0.6,1.7,0.9c0.3,0.2,0.6,0.3,0.9,0.5
				c0.8,0.4,1.6,0.9,2.4,1.3c0.3,0.2,0.6,0.3,0.9,0.5c0.5,0.3,1,0.6,1.5,0.9c1.3,0.8,2.5,1.5,3.7,2.2c0.7,0.4,1.4,0.9,2.1,1.3
				c1.1,0.7,2.2,1.4,3.2,2.1c0.4,0.3,0.8,0.5,1.2,0.8l0,0c0.4,0.3,0.7,0.5,1.1,0.8c0.4,0.2,0.7,0.5,1,0.8c0.2,0.1,0.3,0.2,0.5,0.4
				s0.3,0.2,0.5,0.4s0.3,0.2,0.5,0.3s0.3,0.2,0.5,0.3s0.3,0.2,0.4,0.3c0.9,0.7,1.6,1.3,2.3,1.8c0.2,0.2,0.4,0.3,0.6,0.5
				c0.1,0.1,0.2,0.2,0.4,0.3c0.2,0.1,0.3,0.3,0.5,0.4C328,66.6,328.6,67.2,328.8,67.3L328.8,67.3L328.8,67.3z"/>
			<path fill="#FFFFFF" d="M328.8,67.3L328.8,67.3L328.8,67.3z"/>
			<path fill="#FFFFFF" d="M326.9,65.7c-0.1-0.1-0.3-0.3-0.5-0.4C326.6,65.5,326.8,65.6,326.9,65.7z"/>
			<path fill="#FFFFFF" d="M326.1,65c-0.2-0.2-0.4-0.3-0.6-0.5C325.7,64.7,325.9,64.9,326.1,65z"/>
			<path fill="#FFFFFF" d="M323.2,62.8c-0.1-0.1-0.3-0.2-0.4-0.3C322.9,62.5,323,62.7,323.2,62.8z"/>
			<path fill="#FFFFFF" d="M322.3,62.1c-0.2-0.1-0.3-0.2-0.5-0.3C321.9,61.8,322.1,62,322.3,62.1z"/>
			<path fill="#382A47" d="M192.7,61.9v-4.6h4.3c0.4,1.4,0.7,2.8,0.9,4.4C196.1,61.7,194.4,61.8,192.7,61.9z"/>
			<path fill="#E6E6E6" d="M209.1,62.4c-3-0.4-6.2-0.7-9.6-0.7v-4.4H197c-0.3-1-0.6-1.9-0.9-2.8c3-1.8,6.4-3.7,10-5.5
				C207.7,53.2,208.7,57.7,209.1,62.4z"/>
			<path fill="#E6E6E6" d="M199.5,61.7c-0.3,0-0.6,0-0.8,0s-0.6,0-0.8,0c-0.2-1.5-0.5-3-0.9-4.4h2.5V61.7L199.5,61.7z"/>
			<path fill="#FFFFFF" d="M321.3,61.4c-0.2-0.1-0.3-0.2-0.5-0.4C321,61.1,321.1,61.2,321.3,61.4z"/>
			<path fill="#FFFFFF" d="M318.6,59.5c0.4,0.3,0.7,0.5,1.1,0.8C319.4,60,319,59.7,318.6,59.5z"/>
			<path fill="#FFFFFF" d="M318.6,59.5c-0.4-0.3-0.8-0.5-1.2-0.8C317.9,58.9,318.2,59.2,318.6,59.5z"/>
			<path fill="#FFFFFF" d="M314.3,56.6c-0.7-0.4-1.4-0.9-2.1-1.3C312.9,55.7,313.6,56.1,314.3,56.6z"/>
			<path fill="#FFFFFF" d="M307,52.2c0.5,0.3,1,0.6,1.5,0.9C308,52.8,307.5,52.5,307,52.2z"/>
			<path fill="#FFFFFF" d="M306.1,51.7c-0.8-0.4-1.6-0.9-2.4-1.3C304.5,50.8,305.4,51.2,306.1,51.7z"/>
			<path fill="#FFFFFF" d="M303.7,50.3c-0.3-0.2-0.6-0.3-0.9-0.5C303.1,50,303.4,50.2,303.7,50.3z"/>
			<path fill="#FFFFFF" d="M301.1,49c-0.3-0.2-0.6-0.3-0.9-0.4C300.6,48.7,300.9,48.9,301.1,49z"/>
			<path fill="#FFFFFF" d="M300.3,48.6c-0.3-0.2-0.6-0.3-0.9-0.4C299.7,48.3,300,48.4,300.3,48.6z"/>
			<path fill="#FFFFFF" d="M299.4,48.2c-0.3-0.2-0.6-0.3-0.9-0.4C298.8,47.9,299.1,48,299.4,48.2z"/>
			<path fill="#FFFFFF" d="M298.5,47.7c-0.3-0.1-0.6-0.3-0.9-0.4C297.9,47.4,298.2,47.6,298.5,47.7z"/>
			<path fill="#E54C47" d="M226.6,40.8c-7.5,2.2-14.4,5.1-20.6,8.2c-6-16.4-20-29-37.2-33.1c3.9-0.9,8-1.4,12.2-1.4
				C200.5,14.5,217.5,25.1,226.6,40.8z"/>
		</g>
		<g>
			<path fill="none" stroke="#727373" stroke-miterlimit="10" d="M226.6,40.8c-9.1-15.7-26.2-26.2-45.7-26.2
				c-4.2,0-8.3,0.5-12.2,1.4c17.2,4.1,31.2,16.6,37.3,33"/>
			<path fill="none" stroke="#727373" stroke-miterlimit="10" d="M206.1,85.7c-6.1,16.4-20.1,28.9-37.3,33c3.9,0.9,8,1.4,12.2,1.4
				c19.5,0,36.5-10.6,45.7-26.2"/>
			<polyline fill="none" stroke="#727373" stroke-miterlimit="10" points="192.7,61.9 192.7,57.3 197,57.3 			"/>
			<polyline fill="none" stroke="#727373" stroke-miterlimit="10" points="197,77.4 192.7,77.4 192.7,72.8 			"/>
			<path fill="none" stroke="#727373" stroke-miterlimit="10" d="M197.9,61.7c-0.2-1.5-0.5-3-0.9-4.4c-0.3-1-0.6-1.9-0.9-2.8
				c3-1.8,6.4-3.7,10-5.5c6.1-3.1,13.1-6,20.6-8.2c8.4-2.5,17.4-4.1,26.9-4.1c14,0,27.1,3.5,38.4,8.1"/>
			<path fill="none" stroke="#727373" stroke-miterlimit="10" d="M291.9,89.9c-11.2,4.6-24.4,8.1-38.4,8.1c-9.5,0-18.6-1.6-26.9-4.1
				c-7.5-2.2-14.4-5.1-20.6-8.2c-3.6-1.8-7-3.7-10-5.5c0.3-0.9,0.6-1.8,0.9-2.8c0.4-1.4,0.7-2.8,0.9-4.4"/>
			<path fill="none" stroke="#727373" stroke-miterlimit="10" d="M199.5,73c-0.3,0-0.6,0-0.8,0s-0.6,0-0.8,0c-1.8,0-3.5-0.1-5.2-0.2
				c-13.6-1.1-23.9-5.4-23.9-5.4s10.3-4.3,23.9-5.4c1.7-0.1,3.4-0.2,5.2-0.2c0.3,0,0.6,0,0.8,0s0.6,0,0.8,0c3.4,0,6.6,0.3,9.6,0.7
				c11.4,1.5,19.5,5,19.5,5s-8.1,3.4-19.5,5C206.1,72.7,202.9,73,199.5,73z"/>
			<path fill="none" stroke="#727373" stroke-miterlimit="10" d="M295.7,88.2c-1.2,0.6-2.5,1.1-3.8,1.6l0,0l0.4-2.2
				c1-6.2,1.5-13.2,1.5-20.3s-0.5-14.2-1.5-20.3l-0.4-2.2l0,0c1.3,0.5,2.5,1.1,3.8,1.6"/>
			<path fill="none" stroke="#727373" stroke-miterlimit="10" d="M300.2,86.1c-0.3,0.1-0.5,0.3-0.8,0.4s-0.6,0.3-0.9,0.4"/>
			<path fill="none" stroke="#727373" stroke-miterlimit="10" d="M315,77.7c-0.2,0.1-0.4,0.3-0.7,0.4s-0.5,0.3-0.7,0.4"/>
			<path fill="none" stroke="#727373" stroke-miterlimit="10" d="M319.8,74.4c-0.4,0.3-0.7,0.5-1.1,0.8"/>
			<path fill="none" stroke="#727373" stroke-miterlimit="10" d="M321.3,73.3c-0.2,0.1-0.3,0.2-0.5,0.4"/>
			<path fill="none" stroke="#727373" stroke-miterlimit="10" d="M322.3,72.6c-0.2,0.1-0.3,0.2-0.5,0.3"/>
			<path fill="none" stroke="#727373" stroke-miterlimit="10" d="M323.2,71.9c-0.1,0.1-0.3,0.2-0.4,0.3"/>
			<path fill="none" stroke="#727373" stroke-miterlimit="10" d="M326.1,69.6c-0.2,0.2-0.4,0.3-0.6,0.5"/>
			<path fill="none" stroke="#727373" stroke-miterlimit="10" d="M326.9,68.9c-0.1,0.1-0.3,0.3-0.5,0.4"/>
			<path fill="none" stroke="#727373" stroke-miterlimit="10" d="M328.8,67.3L328.8,67.3"/>
			<path fill="none" stroke="#727373" stroke-miterlimit="10" d="M328.8,67.3L328.8,67.3"/>
			<path fill="none" stroke="#727373" stroke-miterlimit="10" d="M326.4,65.3c0.2,0.1,0.3,0.3,0.5,0.4"/>
			<path fill="none" stroke="#727373" stroke-miterlimit="10" d="M325.5,64.6c0.2,0.2,0.4,0.3,0.6,0.5"/>
			<path fill="none" stroke="#727373" stroke-miterlimit="10" d="M322.7,62.4c0.1,0.1,0.3,0.2,0.4,0.3"/>
			<path fill="none" stroke="#727373" stroke-miterlimit="10" d="M321.8,61.7c0.2,0.1,0.3,0.2,0.5,0.3"/>
			<path fill="none" stroke="#727373" stroke-miterlimit="10" d="M320.8,61c0.2,0.1,0.3,0.2,0.5,0.4"/>
			<path fill="none" stroke="#727373" stroke-miterlimit="10" d="M318.6,59.5c0.4,0.3,0.7,0.5,1.1,0.8"/>
			<path fill="none" stroke="#727373" stroke-miterlimit="10" d="M317.5,58.7c0.4,0.3,0.8,0.5,1.2,0.8"/>
			<path fill="none" stroke="#727373" stroke-miterlimit="10" d="M312.2,55.3c0.7,0.4,1.4,0.9,2.1,1.3"/>
			<path fill="none" stroke="#727373" stroke-miterlimit="10" d="M307,52.2c0.5,0.3,1,0.6,1.5,0.9"/>
			<path fill="none" stroke="#727373" stroke-miterlimit="10" d="M302.9,49.9c0.3,0.2,0.6,0.3,0.9,0.5c0.8,0.4,1.6,0.9,2.4,1.3"/>
			<path fill="none" stroke="#727373" stroke-miterlimit="10" d="M297.6,47.3c0.3,0.1,0.6,0.3,0.9,0.4c0.3,0.1,0.6,0.3,0.9,0.4
				c0.3,0.1,0.6,0.3,0.9,0.4s0.6,0.3,0.9,0.4"/>
			<path fill="none" stroke="#727373" stroke-miterlimit="10" d="M297.3,67.3c0,7.6-0.6,14.7-1.6,20.9c1-0.4,1.9-0.9,2.8-1.3
				c0.3-0.1,0.6-0.3,0.9-0.4s0.5-0.3,0.8-0.4c5-2.5,9.6-5.1,13.5-7.6c0.2-0.1,0.5-0.3,0.7-0.4s0.4-0.3,0.7-0.4
				c1.3-0.8,2.5-1.7,3.7-2.5c0.4-0.3,0.7-0.5,1.1-0.8c0.4-0.2,0.7-0.5,1-0.8c0.2-0.1,0.3-0.2,0.5-0.4s0.3-0.2,0.5-0.4
				s0.3-0.2,0.5-0.3c0.2-0.1,0.3-0.2,0.5-0.3c0.1-0.1,0.3-0.2,0.4-0.3c0.9-0.7,1.6-1.3,2.3-1.8c0.2-0.2,0.4-0.3,0.6-0.5
				c0.1-0.1,0.2-0.2,0.4-0.3c0.2-0.1,0.3-0.3,0.5-0.4c1-0.9,1.7-1.4,1.8-1.6l0,0l0,0l0,0l0,0c-0.2-0.1-0.8-0.7-1.8-1.6
				c-0.1-0.1-0.3-0.3-0.5-0.4c-0.1-0.1-0.2-0.2-0.4-0.3c-0.2-0.2-0.4-0.3-0.6-0.5c-0.7-0.5-1.5-1.2-2.3-1.8
				c-0.1-0.1-0.3-0.2-0.4-0.3s-0.3-0.2-0.5-0.3s-0.3-0.2-0.5-0.3s-0.3-0.2-0.5-0.4c-0.2-0.1-0.3-0.2-0.5-0.4c-0.3-0.2-0.7-0.5-1-0.8
				c-0.4-0.2-0.7-0.5-1.1-0.8l0,0c-0.4-0.3-0.8-0.5-1.2-0.8c-1-0.7-2-1.4-3.2-2.1c-0.7-0.4-1.4-0.9-2.1-1.3
				c-1.2-0.7-2.4-1.5-3.7-2.2c-0.5-0.3-1-0.6-1.5-0.9c-0.3-0.2-0.6-0.3-0.9-0.5c-0.8-0.4-1.6-0.9-2.4-1.3c-0.3-0.2-0.6-0.3-0.9-0.5
				c-0.6-0.3-1.1-0.6-1.7-0.9c-0.3-0.2-0.6-0.3-0.9-0.4c-0.3-0.2-0.6-0.3-0.9-0.4c-0.3-0.2-0.6-0.3-0.9-0.4
				c-0.3-0.1-0.6-0.3-0.9-0.4c-0.6-0.3-1.2-0.6-1.9-0.8C296.7,52.6,297.3,59.8,297.3,67.3z"/>
			<path fill="none" stroke="#727373" stroke-miterlimit="10" d="M267.2,79.6c-6.8,0-12.2-5.5-12.2-12.2s5.5-12.2,12.2-12.2
				s12.2,5.5,12.2,12.2S274,79.6,267.2,79.6z"/>
			<path fill="none" stroke="#727373" stroke-miterlimit="10" d="M267.2,77c-5.3,0-9.7-4.3-9.7-9.7s4.3-9.7,9.7-9.7
				c5.3,0,9.7,4.3,9.7,9.7C276.9,72.7,272.5,77,267.2,77z"/>
			<line fill="none" stroke="#727373" stroke-miterlimit="10" x1="328.8" y1="67.3" x2="297.3" y2="67.3"/>
			<polyline fill="none" stroke="#727373" stroke-miterlimit="10" points="228.6,67.3 209.4,67.3 199.5,67.3 198.3,67.3 192.7,67.3 
				168.8,67.3 			"/>
		</g>
	</g>
</g>
</svg>
