<?xml version="1.0" encoding="utf-8"?>
<!-- Generator: Adobe Illustrator 22.0.1, SVG Export Plug-In . SVG Version: 6.00 Build 0)  -->
<svg version="1.1" id="Layer_1" xmlns="http://www.w3.org/2000/svg" xmlns:xlink="http://www.w3.org/1999/xlink" x="0px" y="0px"
	 viewBox="0 0 500 500" enable-background="new 0 0 500 500" xml:space="preserve">
<g>
	<path fill="#FFCE09" d="M250.37,236.85l3.69,7.48c0.06,0.12,0.18,0.21,0.31,0.23l8.26,1.2c0.34,0.05,0.48,0.47,0.23,0.71
		l-5.98,5.83c-0.1,0.1-0.14,0.23-0.12,0.37l1.41,8.23c0.06,0.34-0.3,0.6-0.61,0.44l-7.39-3.88c-0.12-0.06-0.27-0.06-0.39,0
		l-7.39,3.88c-0.31,0.16-0.66-0.1-0.61-0.44l1.41-8.23c0.02-0.14-0.02-0.27-0.12-0.37l-5.98-5.83c-0.25-0.24-0.11-0.66,0.23-0.71
		l8.26-1.2c0.14-0.02,0.25-0.11,0.31-0.23l3.69-7.48C249.78,236.54,250.22,236.54,250.37,236.85z"/>
	<g>
		<path fill="#FFDC54" d="M250,238.58l-3.29,6.38c-0.17,0.33-0.5,0.56-0.88,0.59l-7.15,0.65l7.55,0.35
			c0.48,0.02,0.92-0.27,1.09-0.72L250,238.58z"/>
	</g>
	<path fill="#FBBE15" d="M241.97,259.95l-0.16,0.95c-0.06,0.34,0.3,0.6,0.61,0.44l7.39-3.88c0.12-0.06,0.27-0.06,0.39,0l7.39,3.88
		c0.31,0.16,0.66-0.1,0.61-0.44l-1.41-8.23c-0.02-0.14,0.02-0.27,0.12-0.37l5.98-5.83c0.25-0.24,0.11-0.66-0.23-0.71l-2.77-0.4
		C255.4,253.39,248.55,257.62,241.97,259.95z"/>
</g>
</svg>
